{"title":"United.2011.HDTV.XviD-BiA][ICM369","uid":6343348,"size":732854613,"categoryP":"video","categoryS":"movies","magnet":"?xt=urn:btih:6df228981be9c47c8557272949177df5ac38eedf&amp;dn=United.2011.HDTV.XviD-BiA%5D%5BICM369&amp;tr=udp%3A%2F%2Ftracker.openbittorrent.com%3A80&amp;tr=udp%3A%2F%2Fopen.demonii.com%3A1337&amp;tr=udp%3A%2F%2Ftracker.coppersurfer.tk%3A6969&amp;tr=udp%3A%2F%2Fexodus.desync.com%3A6969","seeders":1,"leechers":0,"uploader":"ICM369","files":-1,"time":1303748087,"description":"\nUnited.2011.HDTV.XviD-BiA][ICM369\n_________________________________\n\nRelease Date: 24 April 2011 (UK)\n\nGenre: Drama\nDirector: James Strong\nWriter: Chris Chibnall\nCountry: UK\nLanguage: English\n &lt;a href=&quot;\nhttp://www.imdb.com/title/tt1777034/&quot; rel=&quot;nofollow&quot; target=&quot;_NEW&quot;&gt;\nhttp://www.imdb.com/title/tt1777034/&lt;/a&gt;\n &lt;a href=&quot;\nhttp://leetleech.org/images/55407188130625280552.png&quot; rel=&quot;nofollow&quot; target=&quot;_NEW&quot;&gt;\nhttp://leetleech.org/images/55407188130625280552.png&lt;/a&gt;\n &lt;a href=&quot;\nhttp://leetleech.org/images/16491803480878163165.png&quot; rel=&quot;nofollow&quot; target=&quot;_NEW&quot;&gt;\nhttp://leetleech.org/images/16491803480878163165.png&lt;/a&gt;\n &lt;a href=&quot;\nhttp://leetleech.org/images/40184709291763716958.png&quot; rel=&quot;nofollow&quot; target=&quot;_NEW&quot;&gt;\nhttp://leetleech.org/images/40184709291763716958.png&lt;/a&gt;\n &lt;a href=&quot;\nhttp://leetleech.org/images/27333562769883378025.png&quot; rel=&quot;nofollow&quot; target=&quot;_NEW&quot;&gt;\nhttp://leetleech.org/images/27333562769883378025.png&lt;/a&gt;\n\nUnited is based on the true story of Manchester United's legendary &quot;Busby Babes&quot;, \nthe youngest side ever to win the Football League and the 1958 Munich Air Crash \nthat claimed eight of the their number. \n\nThe film draws on first-hand interviews with the survivors and their families to \ntell the inspirational story of a team and community overcoming terrible tragedy.\n\nStars: David Tennant, Dougray Scott, Sam Claflin, Jack O'Connell, Kate Ashfield\n\n__________\n\nRelease Name: United 2011 HDTV XviD-BiA\nSize: 697.88 MB\nVideo: 720 304 | XviD\nAudio: English | MP3 VBR\nRuntime: 90 mins\n__________\n\nFormat                           : AVI\nFormat/Info                      : Audio Video Interleave\nFile size                        : 698 MiB\nDuration                         : 1h 32mn\nOverall bit rate                 : 1 060 Kbps\n\nVideo\nID                               : 0\nFormat                           : MPEG-4 Visual\nFormat profile                   : Advanced Simple@L5\nFormat settings, BVOP            : 2\nFormat settings, QPel            : No\nFormat settings, GMC             : No warppoints\nFormat settings, Matrix          : Default (H.263)\nCodec ID                         : XVID\nCodec ID/Hint                    : XviD\nDuration                         : 1h 30mn\nBit rate                         : 930 Kbps\nWidth                            : 720 pixels\nHeight                           : 304 pixels\nDisplay aspect ratio             : 2.35:1\nFrame rate                       : 25.000 fps\nColor space                      : YUV\nChroma subsampling               : 4:2:0\nBit depth                        : 8 bits\nScan type                        : Progressive\nCompression mode                 : Lossy\nBits/(Pixel*Frame)               : 0.170\nStream size                      : 605 MiB (87%)\nWriting library                  : XviD 1.2.1 (UTC 2008-12-04)\n\nAudio\nID                               : 1\nFormat                           : MPEG Audio\nFormat version                   : Version 1\nFormat profile                   : Layer 3\nMode                             : Joint stereo\nMode extension                   : MS Stereo\nCodec ID                         : 55\nCodec ID/Hint                    : MP3\nDuration                         : 1h 32mn\nBit rate mode                    : Variable\nBit rate                         : 128 Kbps\nChannel(s)                       : 2 channels\nSampling rate                    : 48.0 KHz\nCompression mode                 : Lossy\nStream size                      : 84.3 MiB (12%)\nAlignment                        : Aligned on interleaves\nInterleave, duration             : 24 ms (0.60 video frame)\n__________\n\nEnjoy:D\n\n\n","torrent":{"xt":"urn:btih:6df228981be9c47c8557272949177df5ac38eedf","amp;dn":"United.2011.HDTV.XviD-BiA%5D%5BICM369","amp;tr":["udp%3A%2F%2Ftracker.openbittorrent.com%3A80","udp%3A%2F%2Fopen.demonii.com%3A1337","udp%3A%2F%2Ftracker.coppersurfer.tk%3A6969","udp%3A%2F%2Fexodus.desync.com%3A6969"],"infoHash":"6df228981be9c47c8557272949177df5ac38eedf","infoHashBuffer":{"type":"Buffer","data":[109,242,40,152,27,233,196,124,133,87,39,41,73,23,125,245,172,56,238,223]},"announce":[],"urlList":[]}}